<?xml version="1.0" encoding="utf-8"?>
<!-- Generator: Adobe Illustrator 18.1.0, SVG Export Plug-In . SVG Version: 6.00 Build 0)  -->
<svg version="1.1" id="Layer_1" xmlns="http://www.w3.org/2000/svg" xmlns:xlink="http://www.w3.org/1999/xlink" x="0px" y="0px"
	 viewBox="0 0 26 33" enable-background="new 0 0 26 33" xml:space="preserve">
<g>
	<g>
		<defs>
			<rect id="SVGID_1_" x="-20" y="-15" width="66.2" height="66.2"/>
		</defs>
		<clipPath id="SVGID_2_">
			<use xlink:href="#SVGID_1_"  overflow="visible"/>
		</clipPath>
		<g clip-path="url(#SVGID_2_)">
			<defs>
				<rect id="SVGID_3_" x="-20" y="-15" width="66.2" height="66.2"/>
			</defs>
			<clipPath id="SVGID_4_">
				<use xlink:href="#SVGID_3_"  overflow="visible"/>
			</clipPath>
			<path clip-path="url(#SVGID_4_)" fill="#282828" d="M13.1,0.9C6.4,0.9,1,6.4,1,13.2c0,3,1.1,5.8,2.9,7.9l9.2,11.5l9.2-11.5
				c1.8-2.1,2.9-4.9,2.9-7.9C25.2,6.4,19.7,0.9,13.1,0.9 M13.1,17.3c-1.9,0-3.4-1.5-3.4-3.4c0-1.9,1.5-3.4,3.4-3.4
				c1.9,0,3.4,1.5,3.4,3.4C16.4,15.8,14.9,17.3,13.1,17.3"/>
		</g>
	</g>
</g>
</svg>
